<?xml version="1.0" encoding="utf-8" standalone="no"?>
<!-- Generator: DataGraph - https://www.visualdatatools.com/DataGraph/index.html  --><!DOCTYPE svg PUBLIC "-//W3C//DTD SVG 1.1//EN" "http://www.w3.org/Graphics/SVG/1.1/DTD/svg11.dtd">
<svg width="1042" height="329" version="1.1" xmlns="http://www.w3.org/2000/svg" xmlns:xlink="http://www.w3.org/1999/xlink">
<g>
  <!-- Commands -->
  <g id="Commands">
    <!-- Legend -->
    <g id="Legend">
      <defs>
        <clipPath id="clipPath">
          <rect x="866.4" y="19.5" width="150" height="32.4"/>
        </clipPath>
      </defs>
      <g clip-path="url(#clipPath)">
        <rect x="866.4" y="19.5" width="150" height="32.4" fill="white" stroke="none"/>
      </g>
      <rect x="866.4" y="19.5" width="150" height="32.4" stroke="black" fill="none" stroke-width="0.5"/>
      <defs>
        <clipPath id="clipPath2">
          <rect x="866.4" y="19.5" width="150" height="32.4"/>
        </clipPath>
      </defs>
      <g clip-path="url(#clipPath2)">
        <g>
          <path d="M 884.52, 28.5 L 884.52, 24.828 
          C 884.52, 23.476, 883.424, 22.38, 882.072, 22.38 
          L 874.728, 22.38 C 873.376, 22.38, 872.28, 23.476, 872.28, 24.828 
          L 872.28, 32.172 C 872.28, 33.524, 873.376, 34.62, 874.728, 34.62 
          L 882.072, 34.62 C 883.424, 34.62, 884.52, 33.524, 884.52, 32.172 
          z "
            fill="rgb(166,206,227)" stroke="none"/>
          <path d="M 884.52, 28.5 L 884.52, 24.828 
          C 884.52, 23.476, 883.424, 22.38, 882.072, 22.38 
          L 874.728, 22.38 C 873.376, 22.38, 872.28, 23.476, 872.28, 24.828 
          L 872.28, 32.172 C 872.28, 33.524, 873.376, 34.62, 874.728, 34.62 
          L 882.072, 34.62 C 883.424, 34.62, 884.52, 33.524, 884.52, 32.172 
          z "
            stroke="black" fill="none" stroke-width="0.5"/>
        </g>
        <g font-family="Helvetica" font-size="12" fill="black">
          <text x="890.4" y="32.8037">同学 A</text>
        </g>
        <g>
          <path d="M 884.52, 42.9 L 884.52, 39.228 
          C 884.52, 37.876, 883.424, 36.78, 882.072, 36.78 
          L 874.728, 36.78 C 873.376, 36.78, 872.28, 37.876, 872.28, 39.228 
          L 872.28, 46.572 C 872.28, 47.924, 873.376, 49.02, 874.728, 49.02 
          L 882.072, 49.02 C 883.424, 49.02, 884.52, 47.924, 884.52, 46.572 
          z "
            fill="rgb(228,26,28)" stroke="none"/>
          <path d="M 884.52, 42.9 L 884.52, 39.228 
          C 884.52, 37.876, 883.424, 36.78, 882.072, 36.78 
          L 874.728, 36.78 C 873.376, 36.78, 872.28, 37.876, 872.28, 39.228 
          L 872.28, 46.572 C 872.28, 47.924, 873.376, 49.02, 874.728, 49.02 
          L 882.072, 49.02 C 883.424, 49.02, 884.52, 47.924, 884.52, 46.572 
          z "
            stroke="black" fill="none" stroke-width="0.5"/>
        </g>
        <g font-family="Helvetica" font-size="12" fill="black">
          <text x="890.4" y="47.2037">同学 B</text>
        </g>
      </g>
    </g>
    <defs>
      <clipPath id="clipPath3">
        <rect x="58.5" y="9.5" width="967.9" height="275"/>
      </clipPath>
    </defs>
    <!-- No name -->
    <g id="No_name" clip-path="url(#clipPath3)">
      <g>
        <path d="M 96.2684 284.5 L 96.2684 250.622 L 127.17 250.622 L 127.17 284.5 L 96.2684 284.5 z 
                 M 164.938 284.5 L 164.938 111.589 L 195.839 111.589 L 195.839 284.5 L 164.938 284.5 z 
                 M 233.608 284.5 L 233.608 136.56 L 264.509 136.56 L 264.509 284.5 L 233.608 284.5 z 
                 M 302.278 284.5 L 302.278 125.956 L 333.179 125.956 L 333.179 284.5 L 302.278 284.5 z 
                 M 370.947 284.5 L 370.947 48.531 L 401.849 48.531 L 401.849 284.5 L 370.947 284.5 z 
                 M 439.617 284.5 L 439.617 142.014 L 470.518 142.014 L 470.518 284.5 L 439.617 284.5 z 
                 M 508.287 284.5 L 508.287 106.787 L 539.188 106.787 L 539.188 284.5 L 508.287 284.5 z 
                 M 576.957 284.5 L 576.957 143.916 L 607.858 143.916 L 607.858 284.5 L 576.957 284.5 z 
                 M 645.626 284.5 L 645.626 219.137 L 676.528 219.137 L 676.528 284.5 L 645.626 284.5 z 
                 M 714.296 284.5 L 714.296 103.166 L 745.197 103.166 L 745.197 284.5 L 714.296 284.5 z 
                 M 782.966 284.5 L 782.966 141.02 L 813.867 141.02 L 813.867 284.5 L 782.966 284.5 z 
                 M 851.636 284.5 L 851.636 93.9342 L 882.537 93.9342 L 882.537 284.5 L 851.636 284.5 z 
                 M 920.305 284.5 L 920.305 270.24 L 951.207 270.24 L 951.207 284.5 L 920.305 284.5 z "
          fill="rgb(166,206,227)" stroke="none"/>
        <path d="M 127.17 284.5 L 127.17 99.0296 L 158.071 99.0296 L 158.071 284.5 L 127.17 284.5 z M 195.839 284.5 L 195.839 113.872 
                 L 226.741 113.872 L 226.741 284.5 L 195.839 284.5 z M 264.509 284.5 L 264.509 143.679 
                 L 295.411 143.679 L 295.411 284.5 L 264.509 284.5 z M 333.179 284.5 L 333.179 41.0831 
                 L 364.08 41.0831 L 364.08 284.5 L 333.179 284.5 z M 401.849 284.5 L 401.849 63.3847 
                 L 432.75 63.3847 L 432.75 284.5 L 401.849 284.5 z M 470.518 284.5 L 470.518 138.865 
                 L 501.42 138.865 L 501.42 284.5 L 470.518 284.5 z M 539.188 284.5 L 539.188 100.441 
                 L 570.09 100.441 L 570.09 284.5 L 539.188 284.5 z M 607.858 284.5 L 607.858 145.543 
                 L 638.759 145.543 L 638.759 284.5 L 607.858 284.5 z M 676.528 284.5 L 676.528 128.909 
                 L 707.429 128.909 L 707.429 284.5 L 676.528 284.5 z M 745.197 284.5 L 745.197 108.984 
                 L 776.099 108.984 L 776.099 284.5 L 745.197 284.5 z M 813.867 284.5 L 813.867 127.502 
                 L 844.769 127.502 L 844.769 284.5 L 813.867 284.5 z M 882.537 284.5 L 882.537 96.3911 
                 L 913.438 96.3911 L 913.438 284.5 L 882.537 284.5 z M 951.207 284.5 L 951.207 139.086 
                 L 982.108 139.086 L 982.108 284.5 L 951.207 284.5 z "
          fill="rgb(228,26,28)" stroke="none"/>
        <path d="M 96.2684 284.5 L 96.2684 250.622 L 127.17 250.622 L 127.17 284.5 M 164.938 284.5 L 164.938 111.589 
                 L 195.839 111.589 L 195.839 284.5 M 233.608 284.5 L 233.608 136.56 L 264.509 136.56 
                 L 264.509 284.5 M 302.278 284.5 L 302.278 125.956 L 333.179 125.956 L 333.179 284.5 
                 M 370.947 284.5 L 370.947 48.531 L 401.849 48.531 L 401.849 284.5 M 439.617 284.5 L 439.617 142.014 
                 L 470.518 142.014 L 470.518 284.5 M 508.287 284.5 L 508.287 106.787 L 539.188 106.787 
                 L 539.188 284.5 M 576.957 284.5 L 576.957 143.916 L 607.858 143.916 L 607.858 284.5 
                 M 645.626 284.5 L 645.626 219.137 L 676.528 219.137 L 676.528 284.5 M 714.296 284.5 L 714.296 103.166 
                 L 745.197 103.166 L 745.197 284.5 M 782.966 284.5 L 782.966 141.02 L 813.867 141.02 
                 L 813.867 284.5 M 851.636 284.5 L 851.636 93.9342 L 882.537 93.9342 L 882.537 284.5 
                 M 920.305 284.5 L 920.305 270.24 L 951.207 270.24 L 951.207 284.5 M 127.17 284.5 L 127.17 99.0296 
                 L 158.071 99.0296 L 158.071 284.5 M 195.839 284.5 L 195.839 113.872 L 226.741 113.872 
                 L 226.741 284.5 M 264.509 284.5 L 264.509 143.679 L 295.411 143.679 L 295.411 284.5 
                 M 333.179 284.5 L 333.179 41.0831 L 364.08 41.0831 L 364.08 284.5 M 401.849 284.5 L 401.849 63.3847 
                 L 432.75 63.3847 L 432.75 284.5 M 470.518 284.5 L 470.518 138.865 L 501.42 138.865 L 501.42 284.5 
                 M 539.188 284.5 L 539.188 100.441 L 570.09 100.441 L 570.09 284.5 M 607.858 284.5 L 607.858 145.543 
                 L 638.759 145.543 L 638.759 284.5 M 676.528 284.5 L 676.528 128.909 L 707.429 128.909 
                 L 707.429 284.5 M 745.197 284.5 L 745.197 108.984 L 776.099 108.984 L 776.099 284.5 
                 M 813.867 284.5 L 813.867 127.502 L 844.769 127.502 L 844.769 284.5 M 882.537 284.5 L 882.537 96.3911 
                 L 913.438 96.3911 L 913.438 284.5 M 951.207 284.5 L 951.207 139.086 L 982.108 139.086 
                 L 982.108 284.5 "
          stroke="black" stroke-linecap="square" fill="none" stroke-width="0.5"/>
      </g>
    </g>
  </g>
  <!-- Foreground -->
  <g id="Foreground">
    <!-- Y Axis -->
    <g id="Y_Axis">
      <g transform="translate(14.0188,147) rotate(-90) translate(-14.0188,-147)" font-family="Helvetica" font-size="12" fill="black">
        <text x="-44.6629" y="147">相对 cuSparse 加速比</text>
      </g>
      <!-- Y Labels -->
      <g id="Y_Labels">
        <g font-family="Helvetica" font-size="12" fill="black">
          <text x="41.4262" y="288.804">0</text>
        </g>
        <g font-family="Helvetica" font-size="12" fill="black">
          <text x="31.4184" y="248.363">0.5</text>
        </g>
        <g font-family="Helvetica" font-size="12" fill="black">
          <text x="31.4184" y="207.921">1.0</text>
        </g>
        <g font-family="Helvetica" font-size="12" fill="black">
          <text x="31.4184" y="167.48">1.5</text>
        </g>
        <g font-family="Helvetica" font-size="12" fill="black">
          <text x="31.4184" y="127.039">2.0</text>
        </g>
        <g font-family="Helvetica" font-size="12" fill="black">
          <text x="31.4184" y="86.5978">2.5</text>
        </g>
        <g font-family="Helvetica" font-size="12" fill="black">
          <text x="31.4184" y="46.1567">3.0</text>
        </g>
      </g>
      <path d="M 50.5 284.5 L 58.5 284.5 M 54.5 276.412 L 58.5 276.412 M 54.5 268.324 L 58.5 268.324 
               M 54.5 260.235 L 58.5 260.235 M 54.5 252.147 L 58.5 252.147 M 50.5 244.059 L 58.5 244.059 
               M 54.5 235.971 L 58.5 235.971 M 54.5 227.882 L 58.5 227.882 M 54.5 219.794 L 58.5 219.794 
               M 54.5 211.706 L 58.5 211.706 M 50.5 203.618 L 58.5 203.618 M 54.5 195.529 L 58.5 195.529 
               M 54.5 187.441 L 58.5 187.441 M 54.5 179.353 L 58.5 179.353 M 54.5 171.265 L 58.5 171.265 
               M 50.5 163.176 L 58.5 163.176 M 54.5 155.088 L 58.5 155.088 M 54.5 147 L 58.5 147 M 54.5 138.912 L 58.5 138.912 
               M 54.5 130.824 L 58.5 130.824 M 50.5 122.735 L 58.5 122.735 M 54.5 114.647 L 58.5 114.647 
               M 54.5 106.559 L 58.5 106.559 M 54.5 98.4706 L 58.5 98.4706 M 54.5 90.3824 L 58.5 90.3824 
               M 50.5 82.2941 L 58.5 82.2941 M 54.5 74.2059 L 58.5 74.2059 M 54.5 66.1176 L 58.5 66.1176 
               M 54.5 58.0294 L 58.5 58.0294 M 54.5 49.9412 L 58.5 49.9412 M 50.5 41.8529 L 58.5 41.8529 
               M 54.5 33.7647 L 58.5 33.7647 M 54.5 25.6765 L 58.5 25.6765 M 54.5 17.5882 L 58.5 17.5882 
               M 54.5 9.5 L 58.5 9.5 "
        stroke="black" fill="none" stroke-width="0.5"/>
    </g>
    <!-- X Axis -->
    <g id="X_Axis">
      <g font-family="Helvetica" font-size="12" fill="black">
        <text x="524" y="322">数据集</text>
      </g>
      <g>
        <g font-family="Helvetica" font-size="12" fill="black">
          <text x="114.502" y="303.69">arxiv</text>
        </g>
        <g font-family="Helvetica" font-size="12" fill="black">
          <text x="180.163" y="303.69">collab</text>
        </g>
        <g font-family="Helvetica" font-size="12" fill="black">
          <text x="245.498" y="303.69">citation</text>
        </g>
        <g font-family="Helvetica" font-size="12" fill="black">
          <text x="325.172" y="303.69">ddi</text>
        </g>
        <g font-family="Helvetica" font-size="12" fill="black">
          <text x="383.503" y="303.69">protein</text>
        </g>
        <g font-family="Helvetica" font-size="12" fill="black">
          <text x="460.508" y="303.69">ppa</text>
        </g>
        <g font-family="Helvetica" font-size="12" fill="black">
          <text x="514.506" y="303.69">reddit.dgl</text>
        </g>
        <g font-family="Helvetica" font-size="12" fill="black">
          <text x="584.845" y="303.69">products</text>
        </g>
        <g font-family="Helvetica" font-size="12" fill="black">
          <text x="655.176" y="303.69">youtube</text>
        </g>
        <g font-family="Helvetica" font-size="12" fill="black">
          <text x="706.171" y="303.69">amazon_cogdl</text>
        </g>
        <g font-family="Helvetica" font-size="12" fill="black">
          <text x="802.86" y="303.69">yelp</text>
        </g>
        <g font-family="Helvetica" font-size="12" fill="black">
          <text x="862.864" y="303.69">wikikg2</text>
        </g>
        <g font-family="Helvetica" font-size="12" fill="black">
          <text x="942.872" y="303.69">am</text>
        </g>
      </g>
      <path d="M 127.17 292.5 L 127.17 284.5 M 195.839 292.5 L 195.839 284.5 M 264.509 292.5 L 264.509 284.5 
               M 333.179 292.5 L 333.179 284.5 M 401.849 292.5 L 401.849 284.5 M 470.518 292.5 L 470.518 284.5 
               M 539.188 292.5 L 539.188 284.5 M 607.858 292.5 L 607.858 284.5 M 676.528 292.5 L 676.528 284.5 
               M 745.197 292.5 L 745.197 284.5 M 813.867 292.5 L 813.867 284.5 M 882.537 292.5 L 882.537 284.5 
               M 951.207 292.5 L 951.207 284.5 "
        stroke="black" fill="none" stroke-width="0.5"/>
    </g>
    <path d="M 1026.4 284.5 L 1026.4 9.5 L 58.5 9.5 L 58.5 284.5 L 1026.4 284.5 z "
      stroke="black" stroke-linecap="square" fill="none" stroke-width="0.5"/>
  </g>
</g>
</svg>
